<svg xmlns="http://www.w3.org/2000/svg" width="500" height="500" viewBox="0 0 500 500">
<g>
<path d="M 228.00 197.06 C228.00,197.58 228.45,198.00 229.00,198.00 C229.26,198.00 229.49,197.85 229.67,197.60 C228.40,204.05 227.22,210.10 226.41,214.50 C224.96,222.28 224.56,236.00 225.78,236.00 C226.22,236.00 227.40,234.60 228.41,232.88 C229.42,231.17 237.17,222.65 245.63,213.96 C254.56,204.78 259.60,199.06 260.74,196.78 C260.31,199.58 261.38,199.53 264.49,196.82 C266.29,195.26 267.00,193.63 267.01,191.07 C267.01,189.11 267.73,186.15 268.60,184.50 C270.65,180.63 271.71,177.93 271.41,177.47 C274.22,173.88 277.43,170.18 280.81,166.70 C284.68,162.72 298.34,153.00 300.06,153.00 C300.61,153.00 303.82,151.84 307.20,150.42 C311.88,148.45 315.24,147.80 321.42,147.67 C331.31,147.46 333.80,148.84 337.60,156.61 C339.99,161.50 340.20,162.83 339.76,170.26 C339.06,182.05 336.70,186.72 326.35,196.73 C312.05,210.56 302.75,213.66 281.00,211.84 C275.23,211.36 269.73,210.72 268.79,210.43 C267.86,210.13 265.16,210.47 262.79,211.17 C258.24,212.53 250.43,219.76 242.91,229.58 C237.93,236.08 225.79,260.57 226.20,263.31 C226.31,264.07 226.39,264.55 228.52,264.85 C227.14,264.78 226.34,264.71 226.21,264.63 C225.55,264.22 224.57,264.15 224.05,264.47 C223.52,264.79 219.81,265.25 215.80,265.49 C212.14,265.70 207.00,266.04 201.54,266.41 C202.69,266.32 203.69,266.24 204.50,266.17 L 212.50 265.50 L 213.08 257.00 C213.39,252.32 213.44,245.69 213.18,242.26 C212.72,236.10 212.66,235.99 208.26,233.41 C198.54,227.72 192.29,226.99 153.08,226.99 C133.19,226.99 118.11,226.57 115.82,225.95 C113.70,225.38 110.40,223.54 108.49,221.85 C105.66,219.38 105.00,218.08 105.00,215.03 C105.00,204.43 121.53,197.70 145.50,198.56 C159.94,199.07 168.66,200.67 184.25,205.67 C185.21,205.98 186.00,205.73 186.00,205.12 C186.00,204.50 185.48,204.00 184.83,204.00 C181.73,204.00 161.50,182.59 150.17,167.31 C144.18,159.23 137.01,145.59 136.99,142.23 C136.98,141.28 136.31,138.29 135.49,135.59 C131.59,122.74 135.84,106.96 145.83,97.22 C156.77,86.54 167.86,82.07 180.21,83.36 C188.63,84.24 194.32,87.25 201.46,94.59 C207.59,100.90 214.17,110.64 214.41,113.78 C214.48,114.72 215.06,116.43 215.70,117.56 C218.35,122.24 220.50,137.85 221.86,162.32 C222.47,173.18 222.93,178.36 223.51,179.60 C223.21,179.52 223.00,179.14 223.00,178.56 C223.00,177.70 222.52,177.00 221.94,177.00 C221.36,177.00 221.16,177.45 221.50,178.00 C221.84,178.55 221.41,179.00 220.54,179.00 C219.11,179.00 219.11,179.24 220.59,181.50 C222.49,184.39 223.54,184.64 224.39,182.42 C225.22,180.26 225.15,179.03 224.27,179.36 C224.33,179.23 224.40,179.07 224.46,178.89 C225.90,174.95 230.38,153.03 230.36,150.00 C230.35,148.07 230.08,137.95 229.76,127.50 C229.27,111.63 229.48,106.67 231.05,97.38 C235.37,71.74 241.77,57.17 255.13,42.55 C268.49,27.94 282.33,20.74 297.07,20.74 C303.64,20.74 305.85,21.21 311.35,23.78 C329.83,32.43 337.47,49.56 333.64,73.75 C331.63,86.43 328.27,95.10 321.16,106.00 C309.14,124.41 292.03,137.02 261.59,149.91 C253.84,153.19 245.36,156.41 242.75,157.06 C238.50,158.11 237.91,158.61 237.03,161.87 C236.59,163.48 234.86,171.78 232.85,181.71 C232.67,181.38 232.36,181.28 232.00,181.50 C231.45,181.84 231.00,182.54 231.00,183.06 C231.00,183.58 231.45,184.00 232.00,184.00 C232.15,184.00 232.29,183.95 232.41,183.86 C231.61,187.84 230.77,192.02 229.97,196.08 C229.86,195.47 229.47,195.21 229.00,195.50 C228.45,195.84 228.00,196.54 228.00,197.06 ZM 242.26 146.10 C241.58,148.73 243.15,148.52 251.42,144.91 C281.00,131.98 290.88,126.10 302.56,114.50 C317.30,99.85 324.60,85.13 325.73,67.79 C326.73,52.30 323.54,42.91 314.88,35.91 C302.59,25.98 288.32,27.41 271.39,40.28 C257.61,50.77 248.50,64.94 243.96,83.00 C242.78,87.68 241.45,92.22 241.00,93.09 C240.04,94.95 239.08,108.92 238.58,128.14 C238.23,141.47 238.27,141.81 240.49,142.99 C242.01,143.81 242.59,144.84 242.26,146.10 ZM 205.50 209.96 C208.98,213.35 213.64,213.68 214.62,210.61 C214.95,209.57 214.95,203.72 214.62,197.61 C214.29,191.50 213.76,177.73 213.45,167.00 C212.89,147.74 211.20,132.82 208.57,123.94 C204.42,109.94 192.98,95.77 183.68,93.11 C168.20,88.69 148.20,100.90 144.43,117.07 C142.75,124.27 144.38,136.73 148.26,146.40 C151.50,154.46 152.55,156.04 163.21,168.86 C166.12,172.35 169.40,176.51 170.50,178.09 C171.60,179.68 173.06,180.98 173.75,180.99 C174.44,180.99 175.01,181.56 175.03,182.25 C175.08,184.34 180.25,189.37 191.65,198.42 C197.62,203.16 203.85,208.35 205.50,209.96 ZM 285.86 200.55 C286.21,200.92 290.60,201.01 295.60,200.76 C308.24,200.11 316.83,196.18 324.97,187.29 C328.17,183.80 331.03,179.72 331.33,178.23 C331.63,176.73 332.18,174.31 332.54,172.84 C333.33,169.63 330.64,159.78 328.33,157.48 C323.60,152.74 300.36,160.67 288.84,170.95 C285.73,173.73 282.69,176.00 282.09,176.00 C281.49,176.00 280.99,176.34 280.99,176.75 C280.98,177.16 279.22,179.39 277.07,181.71 C274.92,184.02 272.88,186.81 272.53,187.90 C272.18,189.00 270.99,190.18 269.89,190.53 C268.42,191.00 267.97,191.89 268.19,193.84 C268.44,195.94 269.11,196.57 271.40,196.83 C273.00,197.01 274.89,197.75 275.61,198.46 C276.32,199.18 278.77,199.79 281.06,199.82 C283.34,199.85 285.50,200.18 285.86,200.55 ZM 178.83 219.50 C179.41,220.08 188.13,219.20 188.84,218.49 C190.88,216.46 176.93,210.66 172.24,211.60 C170.13,212.02 168.25,211.74 166.76,210.77 C159.14,205.79 130.77,206.05 118.75,211.21 C113.75,213.35 112.47,216.07 115.75,217.60 C116.71,218.05 131.20,218.56 147.94,218.74 C164.69,218.91 178.59,219.26 178.83,219.50 ZM 191.38 157.87 C190.75,161.00 189.99,161.65 188.58,160.25 C188.17,159.84 187.53,159.50 187.17,159.49 C186.24,159.47 174.64,152.09 170.30,148.75 L 166.72 146.00 L 169.76 146.00 C171.58,146.00 174.89,147.41 178.00,149.50 C183.50,153.20 184.97,153.63 186.62,151.98 C187.32,151.28 188.34,151.56 189.82,152.85 C191.54,154.33 191.87,155.41 191.38,157.87 ZM 263.76 98.62 C262.78,100.78 259.38,102.45 258.61,101.16 C258.40,100.80 258.45,98.17 258.73,95.33 C259.12,91.41 259.58,90.29 260.65,90.70 C263.12,91.64 264.89,96.15 263.76,98.62 ZM 207.29 198.70 C206.56,200.59 205.79,200.25 203.15,196.92 C200.68,193.79 200.85,191.00 203.52,191.00 C205.28,191.00 208.06,196.68 207.29,198.70 ZM 250.68 127.40 C249.93,129.35 246.00,129.54 246.00,127.62 C246.00,125.57 248.35,123.98 249.93,124.96 C250.68,125.42 251.01,126.52 250.68,127.40 ZM 261.05 195.34 C261.36,192.98 263.25,189.18 266.16,184.74 C263.91,188.74 261.64,193.28 261.05,195.34 ZM 140.37 272.05 C129.10,273.47 119.84,275.04 117.28,276.05 C120.06,274.96 128.60,273.52 140.37,272.05 ZM 167.14 269.21 C163.28,269.60 158.54,270.07 154.00,270.52 C152.31,270.69 150.62,270.86 148.95,271.04 C154.59,270.42 160.72,269.80 167.14,269.21 Z" fill="rgba(131,140,65,1)"/>
<path d="M 242.26 146.10 C242.59,144.84 242.01,143.81 240.49,142.99 C238.51,141.93 238.26,141.55 238.48,131.96 C238.44,136.75 238.57,140.00 238.95,140.00 C239.65,140.00 244.00,131.04 244.00,129.59 C244.00,128.61 249.96,115.63 254.02,107.80 C257.71,100.65 258.00,99.49 258.03,91.80 C258.08,75.74 261.10,54.70 264.03,49.95 C264.74,48.81 265.17,48.77 266.16,49.76 C267.16,50.76 267.07,52.67 265.75,59.25 C264.84,63.79 263.78,72.22 263.41,78.00 C262.74,88.43 262.75,88.49 264.72,86.73 C265.82,85.75 267.56,83.29 268.61,81.26 C276.57,65.73 296.00,41.64 299.04,43.53 C300.88,44.66 299.93,46.55 293.57,54.48 C290.05,58.87 287.35,62.76 287.58,63.13 C288.86,65.20 307.14,58.24 316.27,52.20 C319.29,50.20 320.33,49.94 321.29,50.92 C322.24,51.90 321.76,52.81 319.00,55.20 C313.52,59.95 302.87,64.43 284.00,69.91 C282.21,70.43 279.14,74.32 273.23,83.57 C265.42,95.79 254.13,116.67 252.52,121.89 C251.85,124.06 252.01,124.21 254.31,123.64 C259.21,122.41 280.18,109.43 291.17,100.82 C294.09,98.53 297.70,98.94 296.31,101.41 C293.56,106.27 269.45,122.29 257.00,127.52 C249.08,130.84 249.01,130.92 244.01,141.94 C243.20,143.72 242.50,145.47 242.18,146.45 C242.20,146.34 242.23,146.22 242.26,146.10 ZM 205.50 209.96 C204.53,209.02 202.00,206.85 198.87,204.27 C198.91,204.30 198.95,204.33 199.00,204.36 C203.12,207.46 207.05,210.00 207.73,210.00 C209.68,210.00 205.35,200.04 202.19,197.27 C200.71,195.98 194.79,192.01 189.04,188.46 C179.62,182.65 175.17,180.95 175.04,182.36 C175.03,182.32 175.03,182.29 175.03,182.25 C175.01,181.56 174.44,180.99 173.75,180.99 C173.29,180.98 172.49,180.40 171.68,179.54 C173.43,181.36 175.00,181.49 175.00,179.50 C175.00,176.76 180.27,177.91 188.85,182.52 C193.44,184.98 197.64,187.00 198.18,187.00 C199.19,187.00 198.36,181.35 197.08,179.50 C196.70,178.95 194.68,174.59 192.59,169.82 C189.05,161.71 188.48,160.93 182.45,156.89 C184.91,158.41 186.81,159.48 187.17,159.49 C187.53,159.50 188.17,159.84 188.58,160.25 C189.99,161.65 190.75,161.00 191.38,157.87 C191.87,155.41 191.54,154.33 189.82,152.85 C188.34,151.56 187.32,151.28 186.62,151.98 C184.97,153.63 183.50,153.20 178.00,149.50 C174.89,147.41 171.58,146.00 169.76,146.00 L 166.72 146.00 L 170.30 148.75 C171.80,149.90 174.17,151.54 176.66,153.19 C171.02,149.73 164.80,146.34 159.50,143.84 C151.90,140.27 150.64,139.50 150.77,138.50 C151.16,135.47 160.59,138.85 173.50,146.65 C177.99,149.37 180.85,150.54 181.47,149.92 C182.09,149.30 180.40,144.99 176.72,137.82 C173.57,131.69 171.15,126.52 171.34,126.33 C172.24,125.42 179.38,133.80 183.04,140.07 C185.30,143.94 187.63,146.96 188.21,146.76 C189.47,146.34 191.04,142.35 194.51,130.75 C197.05,122.23 198.42,120.33 199.68,123.60 C200.36,125.38 199.62,128.58 193.54,150.27 L 191.93 156.04 L 197.88 168.27 C203.15,179.08 210.78,199.51 212.45,207.25 C213.97,214.34 214.26,207.64 213.67,178.75 C213.42,166.88 213.09,157.65 212.59,150.16 C212.99,155.31 213.28,160.94 213.45,167.00 C213.76,177.73 214.29,191.50 214.62,197.61 C214.95,203.72 214.95,209.57 214.62,210.61 C213.64,213.68 208.98,213.35 205.50,209.96 ZM 282.10 199.86 C281.76,199.84 281.41,199.83 281.06,199.82 C278.77,199.79 276.32,199.18 275.61,198.46 C274.89,197.75 273.00,197.01 271.40,196.83 C269.11,196.57 268.44,195.94 268.19,193.84 C267.97,191.89 268.42,191.00 269.89,190.53 C270.99,190.18 272.18,189.00 272.53,187.90 C272.88,186.81 274.92,184.02 277.07,181.71 C279.22,179.39 280.98,177.16 280.99,176.75 C280.99,176.34 281.49,176.00 282.09,176.00 C282.69,176.00 285.73,173.73 288.84,170.95 C289.74,170.14 290.71,169.35 291.75,168.58 C290.11,169.92 288.47,171.48 286.51,173.46 C279.08,181.00 269.20,194.54 270.32,195.66 C270.69,196.02 272.23,195.76 273.75,195.07 C278.64,192.84 304.95,175.02 311.32,169.62 C319.71,162.50 322.66,160.64 323.47,161.96 C323.83,162.54 323.23,164.17 322.12,165.57 C318.87,169.71 296.18,187.06 284.74,194.16 C279.53,197.40 278.71,198.80 282.10,199.86 ZM 178.83 219.50 C178.59,219.26 164.69,218.91 147.94,218.74 C144.71,218.70 141.56,218.66 138.58,218.60 C156.18,218.49 180.32,218.02 180.74,217.60 C181.96,216.37 162.00,214.88 144.12,214.85 C137.46,214.84 132.01,214.53 132.02,214.17 C132.08,211.18 134.07,210.78 148.87,210.80 C157.19,210.81 164.21,210.47 164.47,210.05 C164.94,209.29 158.48,208.04 152.09,207.40 C158.53,207.85 164.00,208.96 166.76,210.77 C168.25,211.74 170.13,212.02 172.24,211.60 C176.93,210.66 190.88,216.46 188.84,218.49 C188.13,219.20 179.41,220.08 178.83,219.50 ZM 262.18 192.48 C264.58,187.17 269.64,178.34 271.01,177.49 C272.13,176.80 271.10,179.78 268.60,184.50 C267.73,186.15 267.01,189.11 267.01,191.07 C267.00,193.63 266.29,195.26 264.49,196.82 C262.13,198.87 260.95,199.40 260.70,198.31 C260.89,198.39 261.29,198.00 262.01,197.24 C262.92,196.28 263.47,194.72 263.22,193.76 C262.95,192.72 262.57,192.32 262.18,192.48 ZM 263.76 98.62 C264.89,96.15 263.12,91.64 260.65,90.70 C259.58,90.29 259.12,91.41 258.73,95.33 C258.45,98.17 258.40,100.80 258.61,101.16 C259.38,102.45 262.78,100.78 263.76,98.62 ZM 207.29 198.70 C208.06,196.68 205.28,191.00 203.52,191.00 C200.85,191.00 200.68,193.79 203.15,196.92 C205.79,200.25 206.56,200.59 207.29,198.70 ZM 220.59 181.50 C219.11,179.24 219.11,179.00 220.54,179.00 C221.41,179.00 221.84,178.55 221.50,178.00 C221.16,177.45 221.36,177.00 221.94,177.00 C222.52,177.00 223.00,177.70 223.00,178.56 C223.00,179.42 223.45,179.84 224.00,179.50 C225.13,178.80 225.30,180.06 224.39,182.42 C223.54,184.64 222.49,184.39 220.59,181.50 ZM 250.68 127.40 C251.01,126.52 250.68,125.42 249.93,124.96 C248.35,123.98 246.00,125.57 246.00,127.62 C246.00,129.54 249.93,129.35 250.68,127.40 ZM 231.00 183.06 C231.00,182.54 231.45,181.84 232.00,181.50 C232.55,181.16 233.00,181.58 233.00,182.44 C233.00,183.30 232.55,184.00 232.00,184.00 C231.45,184.00 231.00,183.58 231.00,183.06 ZM 228.00 197.06 C228.00,196.54 228.45,195.84 229.00,195.50 C229.55,195.16 230.00,195.58 230.00,196.44 C230.00,197.30 229.55,198.00 229.00,198.00 C228.45,198.00 228.00,197.58 228.00,197.06 ZM 285.86 200.55 C285.85,200.54 285.83,200.53 285.82,200.52 C288.12,200.66 291.92,200.69 295.60,200.57 C300.13,200.43 304.13,199.84 307.78,198.72 C304.13,199.87 300.13,200.53 295.60,200.76 C290.60,201.01 286.21,200.92 285.86,200.55 ZM 118.39 217.92 C116.89,217.81 115.97,217.71 115.75,217.60 C114.31,216.93 113.75,216.02 114.00,215.04 C114.00,215.06 114.00,215.08 114.00,215.10 C114.00,216.22 114.90,217.15 116.25,217.44 C116.86,217.57 117.63,217.74 118.39,217.92 ZM 116.98 212.08 C117.50,211.78 118.09,211.49 118.75,211.21 C121.75,209.92 125.76,208.94 130.21,208.27 C124.67,209.20 119.88,210.57 116.98,212.08 ZM 239.14 112.34 C239.62,102.39 240.23,95.48 240.85,93.48 C240.26,95.54 239.61,103.54 239.14,112.34 ZM 319.88 156.36 C323.82,155.77 326.91,156.05 328.33,157.48 C326.97,156.11 323.91,155.78 319.88,156.36 ZM 251.42 144.91 C248.79,146.06 246.84,146.86 245.42,147.34 C246.85,146.85 248.80,146.05 251.42,144.91 ZM 204.24 113.59 C206.04,116.93 207.53,120.44 208.57,123.94 C208.63,124.15 208.70,124.36 208.76,124.58 C208.70,124.37 208.63,124.15 208.57,123.94 C207.53,120.44 206.04,116.93 204.24,113.59 Z" fill="rgba(142,151,68,1)"/>
<path d="M 339.00 328.09 C316.76,329.98 305.31,330.29 249.50,330.49 C166.74,330.80 139.50,329.70 131.50,325.75 C122.24,321.16 121.28,318.96 120.46,300.41 C119.94,288.62 120.08,285.15 121.15,283.81 C122.12,282.60 125.17,281.85 132.00,281.13 C137.23,280.58 148.02,279.44 156.00,278.60 C196.91,274.26 204.47,273.92 269.00,273.57 C319.89,273.29 361.33,274.54 366.17,276.48 C368.19,277.29 370.85,283.61 371.65,289.49 C372.46,295.35 368.20,321.96 366.10,324.21 C364.79,325.61 359.88,326.31 339.00,328.09 ZM 199.82 329.49 C200.48,330.14 298.52,329.31 307.50,328.57 C311.35,328.25 325.08,327.26 338.00,326.37 C350.92,325.47 362.43,324.39 363.58,323.96 C365.27,323.32 366.00,321.39 367.58,313.34 C370.47,298.56 369.78,281.83 366.15,278.71 C363.16,276.14 333.70,274.88 278.50,274.96 C225.45,275.04 201.90,275.81 173.50,278.42 C151.68,280.43 130.23,282.85 126.00,283.80 L 122.50 284.58 L 122.32 298.60 C122.12,314.96 123.35,319.20 129.40,322.94 C134.63,326.17 157.56,328.83 181.02,328.92 C191.09,328.96 199.55,329.22 199.82,329.49 ZM 142.68 346.00 C143.12,351.71 142.97,354.00 142.15,354.00 C141.43,354.00 141.00,352.02 141.00,348.69 C141.00,345.57 140.39,342.58 139.53,341.44 C137.03,338.14 137.61,336.00 141.00,336.00 C142.65,336.00 144.00,336.45 144.00,337.00 C144.00,337.55 143.56,338.00 143.03,338.00 C142.44,338.00 142.30,341.08 142.68,346.00 ZM 125.77 274.17 C125.51,274.22 125.27,274.27 125.04,274.32 C118.67,275.64 118.55,275.72 117.02,280.08 C116.16,282.51 114.67,285.67 113.72,287.09 C111.06,291.05 110.63,305.77 112.83,314.61 C111.80,310.98 111.03,307.63 111.34,307.32 C111.58,307.09 111.37,305.23 110.89,303.20 C110.07,299.72 110.49,296.40 113.04,286.00 C113.51,284.08 114.16,281.25 114.48,279.72 C114.81,278.11 116.00,276.56 117.28,276.05 C118.58,275.54 121.62,274.88 125.77,274.17 ZM 119.75 328.08 C120.56,328.80 121.37,329.30 122.17,329.55 C123.37,329.93 125.25,331.09 126.36,332.12 C127.47,333.16 129.14,334.00 130.08,334.00 C132.06,334.00 133.15,336.14 132.07,337.89 C131.20,339.29 131.51,349.52 132.87,366.99 C132.25,360.15 131.67,354.45 131.44,353.00 C131.15,351.08 130.65,346.58 130.34,343.00 C129.72,335.85 127.91,332.00 125.17,332.00 C124.13,332.00 122.02,330.42 119.75,328.08 ZM 383.88 304.04 C384.07,300.64 383.58,298.28 382.38,296.46 C381.39,294.95 381.20,294.00 381.88,294.00 C382.50,294.00 383.00,293.33 383.00,292.50 C383.00,291.67 383.34,291.00 383.75,290.99 C384.15,290.99 384.58,289.24 384.72,287.07 C384.74,288.84 384.67,291.08 384.57,294.14 C384.45,297.69 384.22,300.99 383.88,304.04 ZM 312.13 450.33 C311.37,451.25 310.25,451.94 309.63,451.86 C309.01,451.78 306.70,451.39 304.50,451.00 L 300.50 450.28 L 304.50 450.13 C306.70,450.04 309.62,449.68 311.00,449.31 C313.24,448.72 313.36,448.82 312.13,450.33 ZM 283.87 265.11 C276.06,265.20 271.00,265.48 271.00,265.97 C271.00,266.54 269.88,267.00 268.50,267.00 C267.12,267.00 266.00,266.50 266.00,265.89 C266.00,265.51 264.71,265.28 261.82,265.17 C264.47,265.17 267.19,265.16 269.96,265.14 C274.65,265.11 279.30,265.10 283.87,265.11 ZM 252.03 265.17 C250.35,265.20 248.51,265.24 246.50,265.30 C234.73,265.61 226.77,265.44 226.42,264.86 C226.10,264.36 225.01,264.20 223.97,264.51 C224.00,264.50 224.03,264.48 224.05,264.47 C224.57,264.15 225.55,264.22 226.21,264.63 C226.70,264.93 237.28,265.14 252.03,265.17 ZM 376.26 269.38 C375.43,269.04 374.46,269.00 373.08,269.00 C371.05,269.00 368.97,268.59 368.45,268.10 C367.52,267.22 351.84,266.36 333.32,265.78 C357.03,266.47 373.51,267.63 375.76,269.01 C375.92,269.11 376.08,269.23 376.26,269.38 ZM 192.24 267.08 C172.30,268.62 150.99,270.70 137.18,272.46 C142.40,271.77 148.17,271.10 154.00,270.52 C162.52,269.67 171.75,268.75 174.50,268.48 C177.22,268.21 184.35,267.65 192.24,267.08 ZM 113.94 318.24 C115.07,321.43 116.48,324.15 118.00,326.15 C117.38,325.42 116.76,324.65 116.16,323.86 C115.66,323.18 114.80,320.90 113.94,318.24 ZM 364.28 333.58 C370.17,332.70 374.83,329.49 378.15,324.08 C374.86,329.59 370.27,332.69 364.28,333.58 ZM 384.40 283.08 C383.99,281.36 383.19,279.50 381.89,277.13 C381.43,276.29 381.02,275.54 380.64,274.87 C381.02,275.49 381.39,276.11 381.72,276.74 C383.21,279.54 384.01,281.08 384.40,283.08 ZM 219.91 265.16 C218.60,265.30 217.14,265.42 215.72,265.50 C215.23,265.52 214.75,265.55 214.26,265.58 C214.80,265.54 215.31,265.51 215.80,265.49 C217.25,265.40 218.67,265.29 219.91,265.16 Z" fill="rgba(169,132,101,1)"/>
<path d="M 226.50 464.46 C163.11,461.02 141.46,456.60 139.61,446.72 C138.65,441.60 136.08,412.68 136.52,411.97 C136.78,411.54 136.55,406.76 136.01,401.35 C132.17,363.12 130.74,340.04 132.07,337.89 C133.15,336.14 132.06,334.00 130.08,334.00 C129.14,334.00 127.47,333.16 126.36,332.12 C125.25,331.09 123.37,329.93 122.17,329.55 C118.73,328.46 115.10,322.81 113.03,315.35 C110.61,306.61 110.99,291.16 113.72,287.09 C114.67,285.67 116.16,282.51 117.02,280.08 C118.55,275.72 118.67,275.64 125.04,274.32 C137.01,271.83 184.57,267.20 215.72,265.50 C219.14,265.31 222.81,264.88 223.88,264.54 C224.96,264.20 226.09,264.34 226.42,264.86 C226.77,265.44 234.73,265.61 246.50,265.30 C260.41,264.93 266.00,265.10 266.00,265.89 C266.00,266.50 267.12,267.00 268.50,267.00 C269.88,267.00 271.00,266.54 271.00,265.97 C271.00,263.82 366.12,265.89 368.45,268.10 C368.97,268.59 371.05,269.00 373.08,269.00 C377.24,269.00 377.64,269.37 381.89,277.13 C384.15,281.26 384.91,283.85 384.74,286.87 C384.61,289.14 384.16,290.99 383.75,290.99 C383.34,291.00 383.00,291.67 383.00,292.50 C383.00,293.33 382.50,294.00 381.88,294.00 C381.20,294.00 381.39,294.95 382.38,296.46 C384.41,299.56 384.43,304.22 382.44,312.94 C379.66,325.17 373.47,332.21 364.28,333.58 L 360.00 334.23 L 360.00 339.36 C359.99,344.80 356.98,371.73 354.51,388.50 C349.65,421.41 341.39,451.13 335.83,455.72 C334.32,456.97 325.60,459.53 316.00,461.54 C300.15,464.87 258.86,466.22 226.50,464.46 ZM 312.13 450.33 C313.36,448.82 313.24,448.72 311.00,449.31 C309.62,449.68 306.70,450.04 304.50,450.13 L 303.25 450.18 C309.91,449.28 315.33,448.27 320.21,447.07 C324.44,446.03 328.34,444.91 328.87,444.58 C330.90,443.33 334.99,427.46 337.02,413.00 C339.06,398.44 342.91,374.54 344.07,369.27 C344.58,366.95 345.03,358.90 345.07,351.37 C345.14,337.28 344.57,335.24 341.00,336.58 C340.17,336.89 328.25,337.78 314.50,338.56 C288.54,340.02 171.07,339.92 151.16,338.42 L 143.55 337.84 C143.82,337.67 144.00,337.35 144.00,337.00 C144.00,336.45 142.65,336.00 141.00,336.00 C137.61,336.00 137.03,338.14 139.53,341.44 C140.39,342.58 141.00,345.57 141.00,348.69 C141.00,352.02 141.43,354.00 142.15,354.00 C142.60,354.00 142.85,353.30 142.91,351.70 C143.12,356.49 143.34,362.56 143.50,368.50 C144.00,387.53 144.78,400.49 147.06,427.50 C148.58,445.55 148.66,445.88 151.79,446.63 C153.28,446.99 155.03,447.69 155.67,448.19 C156.94,449.19 182.46,452.64 198.50,453.98 C206.99,454.69 253.85,454.38 266.50,453.54 C281.30,452.54 292.41,451.57 301.32,450.43 L 304.50 451.00 C306.70,451.39 309.01,451.78 309.63,451.86 C310.25,451.94 311.37,451.25 312.13,450.33 ZM 339.00 328.09 C359.88,326.31 364.79,325.61 366.10,324.21 C368.20,321.96 372.46,295.35 371.65,289.49 C370.85,283.61 368.19,277.29 366.17,276.48 C361.33,274.54 319.89,273.29 269.00,273.57 C204.47,273.92 196.91,274.26 156.00,278.60 C148.02,279.44 137.23,280.58 132.00,281.13 C125.17,281.85 122.12,282.60 121.15,283.81 C120.08,285.15 119.94,288.62 120.46,300.41 C121.28,318.96 122.24,321.16 131.50,325.75 C139.50,329.70 166.74,330.80 249.50,330.49 C305.31,330.29 316.76,329.98 339.00,328.09 Z" fill="rgba(160,124,93,1)"/>
<path d="M 260.79 195.98 C261.31,192.45 262.58,191.29 263.22,193.76 C263.47,194.72 262.92,196.28 262.01,197.24 C260.45,198.88 260.37,198.81 260.79,195.98 Z" fill="rgba(161,162,120,1)"/>
<path d="M 199.82 329.49 C199.55,329.22 191.09,328.96 181.02,328.92 C157.56,328.83 134.63,326.17 129.40,322.94 C123.35,319.20 122.12,314.96 122.32,298.60 L 122.50 284.58 L 126.00 283.80 C130.23,282.85 151.68,280.43 173.50,278.42 C201.90,275.81 225.45,275.04 278.50,274.96 C333.70,274.88 363.16,276.14 366.15,278.71 C369.78,281.83 370.47,298.56 367.58,313.34 C366.00,321.39 365.27,323.32 363.58,323.96 C362.43,324.39 350.92,325.47 338.00,326.37 C325.08,327.26 311.35,328.25 307.50,328.57 C298.52,329.31 200.48,330.14 199.82,329.49 Z" fill="rgba(181,140,108,1)"/>
<path d="M 175.38 135.19 C174.96,134.55 174.58,134.07 174.27,133.81 C172.66,132.48 167.65,123.00 168.55,123.00 C171.29,123.00 177.73,130.81 184.14,141.89 C183.78,141.31 183.41,140.70 183.04,140.07 C179.38,133.80 172.24,125.42 171.34,126.33 C171.18,126.49 172.92,130.28 175.38,135.19 ZM 161.17 218.31 C168.52,217.95 173.79,217.46 173.46,216.94 C173.02,216.23 165.11,215.47 154.71,215.02 C169.01,215.45 181.72,216.61 180.74,217.60 C180.49,217.85 171.84,218.11 161.17,218.31 ZM 132.28 214.31 C129.72,214.09 128.42,213.76 128.28,213.33 C127.71,211.64 130.51,211.01 141.47,210.85 C133.36,211.04 132.07,211.77 132.02,214.17 C132.01,214.22 132.11,214.26 132.28,214.31 ZM 181.41 149.97 C181.69,149.49 181.09,147.40 180.10,144.86 C181.37,147.80 181.85,149.54 181.47,149.92 C181.45,149.94 181.43,149.96 181.41,149.97 ZM 151.17 210.79 C158.48,210.72 164.21,210.41 164.47,210.04 C164.47,210.05 164.47,210.05 164.47,210.05 C164.23,210.43 158.44,210.75 151.17,210.79 ZM 173.50 146.65 C176.45,148.44 179.15,149.72 180.51,150.04 C179.21,149.80 176.79,148.64 173.50,146.65 ZM 120.50 218.41 C119.40,218.14 117.49,217.71 116.25,217.44 C117.49,217.71 119.40,218.11 120.50,218.35 C120.77,218.40 121.11,218.45 121.52,218.50 C121.00,218.48 120.65,218.45 120.50,218.41 Z" fill="rgba(163,174,79,1)"/>
<path d="M 242.00 147.19 C242.00,146.74 242.91,144.38 244.01,141.94 C249.01,130.92 249.08,130.84 257.00,127.52 C269.45,122.29 293.56,106.27 296.31,101.41 C297.70,98.94 294.09,98.53 291.17,100.82 C280.18,109.43 259.21,122.41 254.31,123.64 C252.01,124.21 251.85,124.06 252.52,121.89 C254.13,116.67 265.42,95.79 273.23,83.57 C279.14,74.32 282.21,70.43 284.00,69.91 C302.87,64.43 313.52,59.95 319.00,55.20 C321.76,52.81 322.24,51.90 321.29,50.92 C320.33,49.94 319.29,50.20 316.27,52.20 C307.14,58.24 288.86,65.20 287.58,63.13 C287.35,62.76 290.05,58.87 293.57,54.48 C299.93,46.55 300.88,44.66 299.04,43.53 C296.00,41.64 276.57,65.73 268.61,81.26 C267.56,83.29 265.82,85.75 264.72,86.73 C262.75,88.49 262.74,88.43 263.41,78.00 C263.78,72.22 264.84,63.79 265.75,59.25 C267.07,52.67 267.16,50.76 266.16,49.76 C265.17,48.77 264.74,48.81 264.03,49.95 C261.10,54.70 258.08,75.74 258.03,91.80 C258.00,99.49 257.71,100.65 254.02,107.80 C252.38,110.96 250.43,114.96 248.69,118.67 C246.78,122.80 245.13,126.64 244.00,129.63 C243.97,130.15 243.47,131.50 242.79,133.05 C242.33,134.36 241.90,135.29 241.48,135.86 L 271.39 40.28 C288.32,27.41 302.59,25.98 314.88,35.91 C323.54,42.91 326.73,52.30 325.73,67.79 C324.60,85.13 317.30,99.85 302.56,114.50 C290.88,126.10 281.00,131.98 251.42,144.91 C244.15,148.08 242.00,148.60 242.00,147.19 ZM 322.70 164.74 C323.42,163.58 323.76,162.43 323.47,161.96 C322.81,160.88 320.72,161.92 315.41,166.21 C317.95,164.11 319.37,162.70 319.00,162.47 C318.73,162.30 319.59,161.00 320.92,159.58 L 323.35 157.00 L 318.31 157.00 C317.40,157.00 316.39,157.10 315.30,157.29 C321.54,155.68 326.49,155.64 328.33,157.48 C329.22,158.36 330.16,160.36 330.94,162.66 C329.10,157.89 327.16,157.30 325.33,160.97 C324.89,161.85 323.87,163.30 322.70,164.74 ZM 175.50 128.94 C172.51,125.21 170.01,123.00 168.55,123.00 C167.65,123.00 172.66,132.48 174.27,133.81 C175.42,134.77 177.56,138.84 179.21,142.68 C177.41,138.81 174.94,134.48 173.11,132.50 C169.56,128.67 165.81,122.11 166.52,120.97 C166.82,120.48 167.73,120.34 168.54,120.66 C169.37,120.97 172.27,124.53 175.50,128.94 ZM 120.50 218.35 C125.41,219.38 157.88,218.83 163.50,217.61 L 169.50 216.31 L 164.00 215.60 C163.69,215.55 163.30,215.51 162.87,215.47 C169.01,215.90 173.15,216.43 173.46,216.94 C174.41,218.47 127.03,219.73 120.50,218.35 ZM 212.45 207.25 C210.78,199.51 203.15,179.08 197.88,168.27 C201.16,175.00 205.73,186.01 208.04,192.75 C210.35,199.49 212.70,205.00 213.27,205.00 C213.72,205.00 213.94,201.08 213.91,192.96 C214.10,209.70 213.68,212.98 212.45,207.25 ZM 207.03 205.02 C208.16,207.71 208.67,210.00 207.73,210.00 C207.29,210.00 205.48,208.94 203.15,207.34 C204.57,208.07 205.21,207.85 206.34,207.42 C207.36,207.03 207.59,206.66 207.03,205.02 ZM 272.00 193.11 C272.00,194.15 272.60,195.00 273.32,195.00 C273.73,195.00 274.68,194.58 276.03,193.84 C275.05,194.41 274.27,194.83 273.75,195.07 C272.23,195.76 270.69,196.02 270.32,195.66 C269.77,195.10 271.93,191.47 275.16,187.04 C273.22,189.84 272.00,192.09 272.00,193.11 ZM 314.17 167.23 C313.30,167.95 312.35,168.74 311.32,169.62 C308.03,172.41 299.41,178.52 291.18,184.08 C299.48,178.36 308.69,171.64 314.17,167.23 ZM 192.10 198.94 C193.55,200.12 194.83,201.15 195.95,202.05 C187.65,195.67 181.64,190.45 178.24,186.92 C181.12,189.79 185.84,193.90 192.10,198.94 ZM 299.48 163.60 C295.70,165.76 292.06,168.29 289.10,170.92 C292.47,167.75 295.20,165.82 299.48,163.60 ZM 331.59 176.99 C331.49,177.44 331.40,177.86 331.33,178.23 C331.03,179.69 328.30,183.62 325.19,187.05 C328.33,183.58 330.44,180.30 331.59,176.99 ZM 212.69 151.72 C211.88,139.03 210.61,130.82 208.57,123.94 C210.66,130.99 211.90,138.87 212.69,151.72 ZM 199.25 195.10 C200.64,196.06 201.68,196.83 202.19,197.27 C202.60,197.63 203.02,198.10 203.45,198.66 C202.43,197.57 201.10,196.44 199.25,195.10 ZM 332.58 169.74 C332.72,171.01 332.72,172.10 332.54,172.84 C332.53,172.89 332.52,172.93 332.51,172.97 C332.63,171.91 332.65,170.83 332.58,169.74 ZM 175.04 182.54 C174.94,181.75 175.82,181.66 177.73,182.37 C176.04,181.77 175.15,181.83 175.04,182.54 ZM 284.74 194.16 C285.59,193.64 286.49,193.06 287.45,192.43 C286.44,193.10 285.52,193.70 284.74,194.18 C281.57,196.14 280.02,197.43 280.06,198.37 C280.02,197.42 281.57,196.13 284.74,194.16 ZM 241.32 92.28 C241.13,92.83 240.98,93.26 240.87,93.50 C240.84,93.55 240.82,93.62 240.80,93.69 C240.86,93.43 240.92,93.24 240.99,93.11 C241.07,92.95 241.18,92.66 241.32,92.28 ZM 184.39 142.31 C184.16,141.92 183.94,141.53 183.71,141.14 C183.95,141.54 184.18,141.93 184.40,142.31 C185.67,144.54 187.09,146.32 187.85,146.70 C187.09,146.32 185.67,144.54 184.39,142.31 ZM 180.44 150.02 C180.92,150.14 181.24,150.14 181.37,150.02 C181.37,150.02 181.37,150.02 181.37,150.02 C181.24,150.15 180.92,150.14 180.44,150.02 ZM 128.30 213.38 C128.29,213.37 128.28,213.35 128.28,213.33 C128.15,212.96 128.19,212.64 128.45,212.36 C128.19,212.64 128.15,212.96 128.28,213.33 C128.28,213.35 128.29,213.37 128.30,213.38 Z" fill="rgba(182,195,95,1)"/>
<path d="M 242.00 147.19 C242.00,146.74 242.91,144.38 244.01,141.94 C249.01,130.92 249.08,130.84 257.00,127.52 C269.45,122.29 293.56,106.27 296.31,101.41 C297.70,98.94 294.09,98.53 291.17,100.82 C280.18,109.43 259.21,122.41 254.31,123.64 C252.01,124.21 251.85,124.06 252.52,121.89 C254.13,116.67 265.42,95.79 273.23,83.57 C279.14,74.32 282.21,70.43 284.00,69.91 C302.87,64.43 313.52,59.95 319.00,55.20 C321.76,52.81 322.24,51.90 321.29,50.92 C320.33,49.94 319.29,50.20 316.27,52.20 C307.14,58.24 288.86,65.20 287.58,63.13 C287.35,62.76 290.05,58.87 293.57,54.48 C299.93,46.55 300.88,44.66 299.04,43.53 C296.00,41.64 276.57,65.73 268.61,81.26 C267.56,83.29 265.82,85.75 264.72,86.73 C262.75,88.49 262.74,88.43 263.41,78.00 C263.78,72.22 264.84,63.79 265.75,59.25 C267.07,52.67 267.16,50.76 266.16,49.76 C265.17,48.77 264.74,48.81 264.03,49.95 C261.10,54.70 258.08,75.74 258.03,91.80 C258.00,99.49 257.71,100.65 254.02,107.80 C249.29,116.94 244.76,127.05 243.07,132.24 C241.60,136.74 240.42,137.66 239.15,135.27 C237.99,133.12 239.50,96.47 240.87,93.50 C241.37,92.40 242.76,87.68 243.94,83.00 C248.53,64.89 257.62,50.76 271.39,40.28 C288.32,27.41 302.59,25.98 314.88,35.91 C323.54,42.91 326.73,52.30 325.73,67.79 C324.60,85.13 317.30,99.85 302.56,114.50 C290.88,126.10 281.00,131.98 251.42,144.91 C244.15,148.08 242.00,148.60 242.00,147.19 ZM 208.04 192.75 C205.73,186.01 201.16,175.00 197.88,168.27 L 191.93 156.04 L 193.54 150.27 C199.62,128.58 200.36,125.38 199.68,123.60 C198.42,120.33 197.05,122.23 194.51,130.75 C191.04,142.36 189.47,146.34 188.20,146.77 C187.63,146.96 185.91,144.95 184.40,142.31 C180.12,134.84 170.19,121.29 168.54,120.66 C167.73,120.34 166.82,120.48 166.52,120.97 C165.81,122.11 169.56,128.67 173.11,132.50 C176.63,136.30 182.55,148.85 181.38,150.01 C180.88,150.51 177.48,149.06 173.50,146.65 C160.59,138.85 151.16,135.47 150.77,138.50 C150.64,139.50 151.90,140.27 159.50,143.84 C166.60,147.18 175.34,152.14 182.15,156.69 C188.46,160.91 188.99,161.57 192.59,169.82 C194.68,174.59 196.70,178.95 197.08,179.50 C198.36,181.35 199.19,187.00 198.18,187.00 C197.64,187.00 193.44,184.98 188.85,182.52 C180.27,177.91 175.00,176.76 175.00,179.50 C175.00,181.93 172.65,181.20 170.50,178.09 C169.40,176.51 166.12,172.35 163.21,168.86 C152.55,156.04 151.50,154.46 148.26,146.40 C144.38,136.73 142.75,124.27 144.43,117.07 C148.20,100.90 168.20,88.69 183.68,93.11 C192.98,95.77 204.43,109.95 208.57,123.94 C211.69,134.49 213.02,148.14 213.65,176.25 C214.09,195.76 213.97,205.00 213.27,205.00 C212.70,205.00 210.35,199.49 208.04,192.75 ZM 284.00 200.33 C278.56,199.19 278.71,197.90 284.74,194.18 C293.26,188.92 316.94,171.03 320.77,166.97 C322.60,165.03 324.65,162.33 325.33,160.97 C327.26,157.09 329.32,157.97 331.25,163.50 C334.25,172.10 332.38,179.20 324.97,187.29 C316.69,196.33 308.15,200.19 295.60,200.57 C290.60,200.73 285.38,200.62 284.00,200.33 ZM 272.00 193.11 C272.00,190.50 280.07,179.74 287.55,172.37 C295.60,164.44 310.49,157.00 318.31,157.00 L 323.35 157.00 L 320.92 159.58 C319.59,161.00 318.73,162.30 319.00,162.47 C320.87,163.64 276.83,195.00 273.32,195.00 C272.60,195.00 272.00,194.15 272.00,193.11 ZM 120.50 218.35 C119.40,218.11 117.49,217.71 116.25,217.44 C114.90,217.15 114.00,216.22 114.00,215.10 C114.00,211.21 130.15,207.00 145.13,207.00 C152.41,207.00 165.12,209.00 164.48,210.04 C164.22,210.46 156.83,210.80 148.07,210.81 C131.60,210.83 127.61,211.34 128.28,213.33 C128.55,214.14 133.27,214.56 143.58,214.69 C151.79,214.79 160.98,215.20 164.00,215.60 L 169.50 216.31 L 163.50 217.61 C157.88,218.83 125.41,219.38 120.50,218.35 ZM 192.10 198.94 C181.32,190.25 175.09,184.34 175.03,182.75 C174.95,180.73 179.53,182.59 189.04,188.46 C201.81,196.34 204.35,198.51 206.31,203.20 C207.66,206.44 207.67,206.91 206.34,207.42 C203.83,208.38 203.68,208.30 192.10,198.94 Z" fill="rgba(194,207,98,1)"/>
<path d="M 198.50 453.98 C182.46,452.64 156.94,449.19 155.67,448.19 C155.03,447.69 153.28,446.99 151.79,446.63 C148.66,445.88 148.58,445.55 147.06,427.50 C144.78,400.49 144.00,387.53 143.50,368.50 C143.21,357.50 142.71,346.07 142.40,343.11 L 141.82 337.71 L 151.16 338.42 C171.07,339.92 288.54,340.02 314.50,338.56 C328.25,337.78 340.17,336.89 341.00,336.58 C344.57,335.24 345.14,337.28 345.07,351.37 C345.03,358.90 344.58,366.95 344.07,369.27 C342.91,374.54 339.06,398.44 337.02,413.00 C334.99,427.46 330.90,443.33 328.87,444.58 C328.34,444.91 324.44,446.03 320.21,447.07 C308.57,449.93 293.86,451.70 266.50,453.54 C253.85,454.38 206.99,454.69 198.50,453.98 Z" fill="rgba(206,161,123,1)"/>
</g>
</svg>